HIERARCHY
ROOT Hips
{
	OFFSET 0.000000 0.000000 0.000000
	CHANNELS 6 Xposition Yposition Zposition Zrotation Yrotation Xrotation 
	JOINT LHipJoint
	{
		OFFSET 0.000000 0.000000 0.000000
		CHANNELS 3 Zrotation Yrotation Xrotation
		JOINT LeftUpLeg
		{
			OFFSET 1.363060 -1.794630 0.839290
			CHANNELS 3 Zrotation Yrotation Xrotation
			JOINT LeftLeg
			{
				OFFSET 2.448110 -6.726130 0.000000
				CHANNELS 3 Zrotation Yrotation Xrotation
				JOINT LeftFoot
				{
					OFFSET 2.562200 -7.039590 0.000000
					CHANNELS 3 Zrotation Yrotation Xrotation
					JOINT LeftToeBase
					{
						OFFSET 0.157640 -0.433110 2.322550
						CHANNELS 3 Zrotation Yrotation Xrotation
						End Site
						{
							OFFSET 0.000000 0.000000 0.000000
						}
					}
				}
			}
		}
	}
	JOINT RHipJoint
	{
		OFFSET 0.000000 0.000000 0.000000
		CHANNELS 3 Zrotation Yrotation Xrotation
		JOINT RightUpLeg
		{
			OFFSET -1.305520 -1.794630 0.839290
			CHANNELS 3 Zrotation Yrotation Xrotation
			JOINT RightLeg
			{
				OFFSET -2.542530 -6.985550 0.000000
				CHANNELS 3 Zrotation Yrotation Xrotation
				JOINT RightFoot
				{
					OFFSET -2.568260 -7.056230 0.000000
					CHANNELS 3 Zrotation Yrotation Xrotation
					JOINT RightToeBase
					{
						OFFSET -0.164730 -0.452590 2.363150
						CHANNELS 3 Zrotation Yrotation Xrotation
						End Site
						{
							OFFSET 0.000000 0.000000 0.000000
						}
					}
				}
			}
		}
	}
	JOINT LowerBack
	{
		OFFSET 0.000000 0.000000 0.000000
		CHANNELS 3 Zrotation Yrotation Xrotation
		JOINT Spine
		{
			OFFSET 0.028270 2.035590 -0.193380
			CHANNELS 3 Zrotation Yrotation Xrotation
			JOINT Spine1
			{
				OFFSET 0.056720 2.048850 -0.042750
				CHANNELS 3 Zrotation Yrotation Xrotation
				JOINT Neck
				{
					OFFSET 0.000000 0.000000 0.000000
					CHANNELS 3 Zrotation Yrotation Xrotation
					JOINT Neck1
					{
						OFFSET -0.054170 1.746240 0.172020
						CHANNELS 3 Zrotation Yrotation Xrotation
						JOINT Head
						{
							OFFSET 0.104070 1.761360 -0.123970
							CHANNELS 3 Zrotation Yrotation Xrotation
							End Site
							{
								OFFSET 0.000000 0.000000 0.000000
							}
						}
					}
				}
				JOINT LeftShoulder
				{
					OFFSET 0.000000 0.000000 0.000000
					CHANNELS 3 Zrotation Yrotation Xrotation
					JOINT LeftArm
					{
						OFFSET 3.362410 1.200890 -0.311210
						CHANNELS 3 Zrotation Yrotation Xrotation
						JOINT LeftForeArm
						{
							OFFSET 4.983000 -0.000000 -0.000000
							CHANNELS 3 Zrotation Yrotation Xrotation
							JOINT LeftHand
							{
								OFFSET 3.483560 -0.000000 -0.000000
								CHANNELS 3 Zrotation Yrotation Xrotation
								JOINT LeftFingerBase
								{
									OFFSET 0.000000 0.000000 0.000000
									CHANNELS 3 Zrotation Yrotation Xrotation
									JOINT LeftHandIndex1
									{
										OFFSET 0.715260 -0.000000 -0.000000
										CHANNELS 3 Zrotation Yrotation Xrotation
										End Site
										{
											OFFSET 0.000000 0.000000 0.000000
										}
									}
								}
								JOINT LThumb
								{
									OFFSET 0.000000 0.000000 0.000000
									CHANNELS 3 Zrotation Yrotation Xrotation
									End Site
									{
										OFFSET 0.000000 0.000000 0.000000
									}
								}
							}
						}
					}
				}
				JOINT RightShoulder
				{
					OFFSET 0.000000 0.000000 0.000000
					CHANNELS 3 Zrotation Yrotation Xrotation
					JOINT RightArm
					{
						OFFSET -3.136600 1.374050 -0.404650
						CHANNELS 3 Zrotation Yrotation Xrotation
						JOINT RightForeArm
						{
							OFFSET -5.241900 -0.000000 -0.000000
							CHANNELS 3 Zrotation Yrotation Xrotation
							JOINT RightHand
							{
								OFFSET -3.444170 -0.000000 -0.000000
								CHANNELS 3 Zrotation Yrotation Xrotation
								JOINT RightFingerBase
								{
									OFFSET 0.000000 0.000000 0.000000
									CHANNELS 3 Zrotation Yrotation Xrotation
									JOINT RightHandIndex1
									{
										OFFSET -0.622530 -0.000000 -0.000000
										CHANNELS 3 Zrotation Yrotation Xrotation
										End Site
										{
											OFFSET 0.000000 0.000000 0.000000
										}
									}
								}
								JOINT RThumb
								{
									OFFSET 0.000000 0.000000 0.000000
									CHANNELS 3 Zrotation Yrotation Xrotation
									End Site
									{
										OFFSET 0.000000 0.000000 0.000000
									}
								}
							}
						}
					}
				}
			}
		}
	}
}
MOTION
Frames: 11
Frame Time: 0.008333
-0.206679 17.437068 11.098995 0.647988 9.137867 19.858349 -5.048028 -1.630528 1.990927 -12.191350 -2.503397 -2.171024 -0.395645 8.477766 24.582614 2.872914 -10.996134 10.830076 1.582566 -7.929562 -22.504017 1.372008 3.559307 -5.378054 11.592586 5.794616 -44.372296 0.845724 -9.714270 23.024537 -1.696440 4.092342 11.959317 -1.123738 6.732834 -18.926378 3.246757 -2.450795 -10.022896 1.803912 -4.151643 -8.967058 -0.590341 -2.095260 -0.104697 -1.538048 -0.932844 -10.234437 2.326272 -1.168457 10.988921 -0.894566 -0.409805 4.167493 13.268225 6.972775 -1.142307 -93.224079 -6.978345 35.734469 36.799072 -51.094998 -17.699311 -0.124583 -0.271754 -10.792335 25.052898 -20.315508 -9.161036 -7.125000 0.000000 0.000000 -2.039984 8.056126 1.735146 -12.879066 -6.721948 1.079081 99.771445 -22.569143 -62.603422 -2.518915 8.399979 0.211050 -0.540713 0.852725 64.368298 -16.669000 -32.933020 8.686869 7.125000 0.000000 0.000000 20.411479 -62.845864 -9.043145
-0.198080 17.432579 11.236083 0.318386 8.920758 19.832850 -4.997476 -1.683365 1.920990 -11.989413 -2.415108 -2.644713 -0.186812 8.887740 25.871646 2.807164 -10.758590 12.532154 1.453036 -7.615337 -21.553610 1.363917 3.515379 -5.316374 11.805799 6.316768 -44.305158 0.716005 -9.988084 23.798490 -1.612523 3.924734 11.305673 -1.625063 7.840603 -22.340594 3.818494 -2.292479 -9.950322 1.825728 -4.042418 -9.010399 -0.749831 -2.037324 -0.263119 -1.531011 -0.883678 -10.340925 2.184020 -1.076081 11.035400 -0.957708 -0.370961 4.241024 13.266988 6.971866 -1.137246 -93.355875 -6.379305 35.536568 37.160402 -51.296501 -17.954429 -0.122487 -0.270126 -10.808161 25.065150 -20.214210 -9.122292 -7.125000 0.000000 0.000000 -2.023279 8.161260 1.716629 -12.863550 -6.697645 1.057167 99.679840 -22.449982 -61.934448 -2.530904 8.475533 0.203782 -0.555616 0.837620 63.799643 -16.595788 -33.095582 8.681573 7.125000 0.000000 0.000000 20.628514 -62.967147 -9.205504
-0.191469 17.427562 11.369597 0.009912 8.688806 19.818031 -4.948939 -1.743971 1.839700 -11.804001 -2.296351 -3.214719 0.039274 9.317255 27.224228 2.738067 -10.447827 14.394794 1.349026 -7.350428 -20.758884 1.357288 3.473053 -5.250999 12.055903 6.805086 -44.233957 0.572588 -10.274734 24.610307 -1.502603 3.707605 10.175195 -2.470472 9.688272 -28.047090 4.344907 -2.138865 -9.830074 1.847092 -3.928200 -9.061177 -0.886281 -1.975166 -0.453878 -1.516756 -0.843632 -10.462077 2.038993 -0.996271 11.080317 -1.026580 -0.338468 4.320907 13.262696 6.968830 -1.133711 -93.469591 -5.767696 35.346276 37.516540 -51.491519 -18.205584 -0.120835 -0.268408 -10.825985 25.049706 -20.153333 -9.089853 -7.125000 0.000000 0.000000 -2.028299 8.227433 1.718248 -12.843596 -6.666819 1.033446 99.610158 -22.386883 -60.277477 -2.535890 8.645487 0.197174 -0.599628 0.806775 62.213861 -16.489200 -33.595372 8.729989 7.125000 0.000000 0.000000 21.182890 -63.378112 -9.666774
-0.184390 17.425949 11.507367 -0.172772 8.459216 19.807143 -4.898165 -1.811625 1.740378 -11.739918 -2.195665 -3.819694 0.295426 9.769312 28.648100 2.676086 -10.032261 16.468902 1.211163 -6.969133 -19.628891 1.342832 3.441797 -5.188829 12.267606 7.134564 -44.192844 0.422447 -10.552176 25.423825 -1.432507 3.627635 9.302793 -2.804731 10.369160 -30.183514 4.722412 -2.020940 -9.740420 1.855068 -3.833564 -9.098958 -1.011489 -1.925795 -0.581856 -1.496972 -0.792958 -10.613151 1.928176 -0.906026 11.123243 -1.079809 -0.299282 4.403592 13.259040 6.970456 -1.129212 -93.559608 -5.188249 35.150479 37.790633 -51.640622 -18.398917 -0.121127 -0.267782 -10.829882 25.009705 -20.227347 -9.105859 -7.125000 0.000000 0.000000 -2.061569 8.153795 1.749557 -12.833983 -6.643343 1.011334 99.535719 -22.240307 -58.979669 -2.530570 8.752213 0.193557 -0.631163 0.782754 61.022759 -16.478860 -33.939338 8.799417 7.125000 0.000000 0.000000 21.504105 -63.675843 -9.968581
-0.177130 17.425654 11.646784 -0.306763 8.230541 19.797775 -4.846524 -1.882006 1.634076 -11.722801 -2.101976 -4.438206 0.563216 10.230096 30.099567 2.616859 -9.576127 18.624867 1.060195 -6.542785 -18.369117 1.325346 3.414825 -5.127900 12.464442 7.402554 -44.163377 0.269702 -10.826054 26.238001 -1.377827 3.600758 8.530291 -2.941126 10.598391 -30.937975 5.042275 -1.916829 -9.662608 1.857862 -3.746508 -9.131710 -1.132345 -1.881374 -0.685532 -1.475047 -0.738171 -10.775809 1.830602 -0.811740 11.165399 -1.126983 -0.257505 4.487361 13.255631 6.973887 -1.124338 -93.640450 -4.621252 34.952551 38.032967 -51.771952 -18.569866 -0.122171 -0.267579 -10.828388 24.960197 -20.353578 -9.140619 -7.125000 0.000000 0.000000 -2.105774 8.026036 1.792359 -12.828374 -6.622711 0.989844 99.459438 -22.061418 -57.820893 -2.521261 8.834465 0.191098 -0.657868 0.761375 59.984436 -16.505778 -34.222983 8.876979 7.125000 0.000000 0.000000 21.735064 -63.929741 -10.208662
-0.169306 17.432482 11.790762 -0.309493 8.003255 19.790626 -4.792365 -1.951743 1.512720 -11.833856 -2.064892 -5.021013 0.871288 10.699076 31.568875 2.567540 -8.892253 20.797462 0.895497 -6.007296 -16.812800 1.297608 3.399712 -5.072686 12.522347 7.585994 -44.151011 0.121924 -11.067008 27.003378 -1.448465 4.187011 8.563824 -2.265731 9.249313 -26.690863 5.209052 -1.832715 -9.684061 1.844193 -3.666973 -9.135904 -1.249859 -1.843459 -0.678592 -1.432428 -0.682943 -10.861505 1.721361 -0.721272 11.149249 -1.185029 -0.217885 4.504539 13.260092 6.988138 -1.112516 -93.723658 -4.059673 34.800781 38.212267 -51.876237 -18.700622 -0.121177 -0.267370 -10.785105 24.973278 -20.190614 -9.075423 -7.125000 0.000000 0.000000 -2.081374 8.198944 1.764587 -12.840652 -6.620539 0.977755 99.411259 -21.690333 -58.483249 -2.532370 8.764959 0.187730 -0.635985 0.773686 60.826498 -16.661932 -33.937444 8.907585 7.125000 0.000000 0.000000 21.292195 -63.719424 -9.889726
-0.161453 17.440407 11.935260 -0.293221 7.776667 19.782998 -4.737776 -2.021182 1.389072 -11.962958 -2.036614 -5.598688 1.186320 11.169272 33.041151 2.520199 -8.174540 22.965726 0.729864 -5.458178 -15.220234 1.268402 3.386321 -5.018193 12.559401 7.758190 -44.139899 -0.024852 -11.302353 27.759925 -1.538029 4.866104 8.725992 -1.469347 7.648763 -21.656813 5.352697 -1.751760 -9.717651 1.828296 -3.588525 -9.136131 -1.365923 -1.806428 -0.657192 -1.386358 -0.627642 -10.934466 1.610035 -0.631443 11.123954 -1.245017 -0.178626 4.511357 13.265723 7.003918 -1.099654 -93.807687 -3.498824 34.656736 38.379745 -51.975068 -18.823620 -0.119846 -0.267174 -10.736250 24.996382 -19.981218 -8.994132 -7.125000 0.000000 0.000000 -2.045986 8.420161 1.725528 -12.855459 -6.620938 0.967025 99.367622 -21.290497 -59.416784 -2.546939 8.673421 0.184235 -0.606920 0.790968 61.947554 -16.837986 -33.569484 8.932085 7.125000 0.000000 0.000000 20.750556 -63.442257 -9.489493
-0.157204 17.449320 12.068834 -0.335474 7.580973 19.723595 -4.680230 -2.077974 1.264982 -12.002649 -2.021855 -6.194552 1.555063 11.637684 34.530019 2.503007 -7.503009 24.698722 0.637243 -5.095575 -14.183970 1.244829 3.368062 -4.954404 12.611550 8.031337 -44.043595 -0.155851 -11.498805 28.426003 -1.621546 5.530933 9.287555 -0.814469 5.292111 -14.859377 5.503007 -1.678621 -9.565261 1.829540 -3.506625 -9.159733 -1.422133 -1.762837 -0.783760 -1.320550 -0.571960 -10.940447 1.478708 -0.545482 11.079928 -1.323496 -0.141599 4.502127 13.269843 7.012443 -1.087801 -93.921014 -2.932075 34.558258 38.403990 -51.988272 -18.841387 -0.116845 -0.267891 -10.736316 25.052687 -19.610755 -8.854283 -7.125000 0.000000 0.000000 -1.974146 8.811101 1.649964 -12.858395 -6.606653 0.952009 99.341475 -20.917387 -60.017368 -2.584399 8.645498 0.181404 -0.590028 0.799183 62.660887 -17.032057 -33.453915 9.021413 7.125000 0.000000 0.000000 20.431672 -63.394327 -9.314884
-0.153223 17.458318 12.201889 -0.398436 7.413512 19.650308 -4.620118 -2.132281 1.141345 -12.012274 -2.017082 -6.783761 1.930126 12.104241 36.027575 2.492375 -6.912380 26.342629 0.564673 -4.812403 -13.374488 1.223884 3.347651 -4.888768 12.703693 8.275901 -43.927341 -0.285027 -11.690041 29.077531 -1.693618 6.135761 9.719301 -0.248890 3.176546 -8.773067 5.671329 -1.610206 -9.398578 1.834713 -3.431846 -9.183076 -1.477205 -1.722464 -0.916561 -1.259615 -0.517751 -10.938988 1.355791 -0.462553 11.037242 -1.396212 -0.105794 4.492203 13.274442 7.020145 -1.075868 -94.038317 -2.377365 34.470346 38.398483 -51.984559 -18.836717 -0.114334 -0.269135 -10.749760 25.112866 -19.297169 -8.740530 -7.125000 0.000000 0.000000 -1.905029 9.140711 1.579161 -12.860624 -6.591800 0.937015 99.314552 -20.554536 -60.424367 -2.615744 8.626966 0.178774 -0.578707 0.803960 63.159753 -17.204043 -33.383440 9.107763 7.125000 0.000000 0.000000 20.176922 -63.379611 -9.186554
-0.150626 17.467762 12.332275 -0.567907 7.391254 19.505613 -4.546806 -2.173811 1.020036 -11.867275 -2.063664 -7.338746 2.337683 12.561256 37.569814 2.515480 -6.737812 27.528362 0.595223 -4.937732 -13.731316 1.216454 3.316176 -4.813626 13.001517 8.373465 -43.708491 -0.404830 -11.854449 29.654230 -1.706828 6.432022 9.483423 -0.142560 2.300857 -6.343981 5.932286 -1.566079 -9.158394 1.860091 -3.393691 -9.205090 -1.526426 -1.698645 -1.081426 -1.223737 -0.471123 -10.899265 1.276131 -0.395223 11.001446 -1.439284 -0.076269 4.478710 13.281502 7.023613 -1.063523 -94.176074 -1.884569 34.436776 38.239964 -51.893840 -18.716661 -0.114344 -0.273095 -10.832010 25.192968 -19.276103 -8.760987 -7.125000 0.000000 0.000000 -1.849921 9.154906 1.532851 -12.859210 -6.574025 0.922134 99.283640 -20.244448 -59.835780 -2.615640 8.656730 0.177176 -0.596039 0.791060 62.555651 -17.262443 -33.544879 9.178794 7.125000 0.000000 0.000000 20.252001 -63.535706 -9.296231
-0.148962 17.477298 12.462954 -0.739143 7.375009 19.362681 -4.471793 -2.215608 0.895491 -11.718599 -2.126494 -7.897012 2.756062 13.015563 39.127051 2.541801 -6.621055 28.653670 0.636685 -5.101907 -14.200061 1.212936 3.285473 -4.739322 13.331817 8.427461 -43.470551 -0.518302 -12.005724 30.190972 -1.710440 6.653358 9.082089 -0.077953 1.788784 -4.922577 6.177597 -1.519966 -8.948564 1.884238 -3.352911 -9.217413 -1.575339 -1.673075 -1.206782 -1.179306 -0.438866 -10.861033 1.193886 -0.347920 10.959220 -1.486975 -0.056486 4.458036 13.291727 7.030274 -1.050409 -94.313736 -1.432743 34.418927 38.028932 -51.774965 -18.559162 -0.115169 -0.277469 -10.883613 25.265505 -19.283894 -8.791251 -7.125000 0.000000 0.000000 -1.802076 9.139629 1.493636 -12.860750 -6.559682 0.910025 99.266566 -19.918650 -59.190538 -2.609851 8.687343 0.173979 -0.613695 0.777163 61.885521 -17.290234 -33.646370 9.217741 7.125000 0.000000 0.000000 20.303951 -63.627751 -9.364553
